<?xml version="1.0" standalone="no"?>
<!DOCTYPE svg PUBLIC "-//W3C//DTD SVG 20010904//EN"
 "http://www.w3.org/TR/2001/REC-SVG-20010904/DTD/svg10.dtd">
<svg version="1.0" xmlns="http://www.w3.org/2000/svg"
 width="343.000000pt" height="311.000000pt" viewBox="0 0 343.000000 311.000000"
 preserveAspectRatio="xMidYMid meet">

<g transform="translate(0.000000,311.000000) scale(0.100000,-0.100000)"
fill="#000000" stroke="none">
<path d="M0 1555 l0 -1555 1715 0 1715 0 0 1555 0 1555 -1715 0 -1715 0 0
-1555z m1965 1310 c265 -57 534 -212 703 -405 102 -117 227 -326 248 -415 11
-48 -10 -18 -43 60 -110 264 -329 497 -597 632 -414 209 -922 171 -1298 -97
-196 -140 -384 -383 -456 -590 -6 -16 -16 -30 -21 -30 -30 0 91 235 186 362
202 268 524 456 854 498 98 12 337 4 424 -15z m-294 -229 l6 39 2 -49 1 -50
-35 34 -35 34 -2 -40 -1 -39 -6 45 c-4 25 -5 48 -3 52 1 4 17 -9 35 -29 l32
-37 6 40z m132 -47 c-5 -5 -6 11 -3 34 4 41 5 41 8 8 2 -18 0 -37 -5 -42z
m-322 44 c8 -9 9 -14 2 -10 -6 4 -14 1 -16 -5 -3 -7 -6 -3 -6 10 -1 26 2 27
20 5z m474 -48 c8 -61 -3 -56 -13 6 l-8 44 -27 -40 c-15 -22 -27 -36 -27 -32
0 16 54 87 60 80 4 -4 11 -30 15 -58z m-434 -8 c12 -22 12 -22 -10 -3 -11 11
-21 23 -21 28 0 14 19 -1 31 -25z m567 -12 c14 5 14 4 0 -12 -8 -10 -17 -25
-20 -33 -2 -8 -4 10 -4 40 0 30 1 42 3 27 3 -22 9 -27 21 -22z m-631 -2 c-3
-10 -5 -4 -5 12 0 17 2 24 5 18 2 -7 2 -21 0 -30z m-153 1 c3 -8 2 -12 -4 -9
-6 3 -10 10 -10 16 0 14 7 11 14 -7z m71 -29 c0 -10 -6 -19 -13 -21 -7 -1 -8
0 -2 3 5 2 10 11 10 18 0 7 -5 16 -10 18 -6 3 -5 4 2 3 7 -2 13 -11 13 -21z
m148 -576 c30 -23 51 -86 41 -124 -10 -38 -24 -30 -24 15 0 103 -54 126 -114
47 -54 -72 -54 -152 1 -232 15 -22 44 -70 63 -107 l36 -67 49 31 c28 17 69 46
92 64 l42 34 -19 43 c-24 52 -26 143 -4 195 31 75 95 122 166 122 73 0 113
-47 106 -125 -5 -59 -25 -55 -24 4 1 39 -4 55 -20 72 -21 21 -23 21 -52 3 -17
-9 -43 -40 -58 -67 -39 -73 -32 -118 39 -235 31 -52 59 -102 62 -113 4 -10 12
-19 19 -19 20 0 127 72 161 108 65 69 187 95 319 67 43 -9 129 -34 190 -56
297 -107 309 -111 401 -116 52 -3 107 -1 131 6 54 15 120 63 147 108 11 20 23
31 25 24 13 -40 -129 -163 -205 -177 -56 -11 -222 2 -298 24 -38 10 -144 50
-235 87 -151 62 -172 69 -251 73 -107 5 -143 -6 -212 -65 -28 -25 -76 -58
-104 -75 -29 -16 -56 -35 -60 -41 -3 -5 -5 -38 -4 -71 5 -135 -65 -227 -175
-228 -24 -1 -54 6 -68 16 -71 46 -27 181 77 236 54 29 54 33 0 122 -36 61 -49
64 -83 23 -7 -9 -44 -34 -80 -56 l-67 -40 0 -77 c1 -96 -26 -161 -82 -197 -54
-35 -138 -38 -171 -5 -24 24 -27 97 -6 139 17 32 77 87 112 103 13 6 24 18 24
26 0 20 -41 92 -53 92 -5 0 -23 -12 -41 -27 -58 -49 -103 -63 -207 -63 -120 0
-202 20 -385 96 -189 77 -227 88 -314 88 -86 0 -143 -21 -203 -74 -51 -44 -47
-16 4 31 65 60 135 82 244 77 94 -5 106 -9 445 -127 133 -47 152 -51 235 -51
91 0 139 14 189 54 19 15 18 17 -13 78 -17 35 -34 80 -37 100 -14 83 39 197
107 231 48 23 110 22 142 -4z m-961 -848 c160 -352 494 -617 888 -703 139 -31
386 -30 525 1 410 93 759 384 905 756 26 66 40 88 40 64 0 -24 -44 -127 -85
-199 -144 -255 -371 -459 -625 -563 -188 -76 -295 -97 -504 -97 -119 0 -175 5
-267 24 -261 53 -517 204 -698 411 -106 121 -224 324 -236 407 -5 32 -5 32 7
8 6 -14 29 -63 50 -109z m266 49 c-7 -10 -14 -17 -17 -15 -4 4 18 35 25 35 2
0 -1 -9 -8 -20z m1813 -28 c-6 -2 -16 2 -23 8 -7 6 -22 18 -33 26 -11 9 -1 5
23 -8 24 -12 39 -24 33 -26z m-1773 7 c-3 -8 -7 -3 -11 10 -4 17 -3 21 5 13 5
-5 8 -16 6 -23z m-75 -49 c-6 -7 -23 23 -23 40 0 8 6 4 13 -10 8 -14 12 -27
10 -30z m29 8 c-8 -8 -9 -4 -5 13 4 13 8 18 11 10 2 -7 -1 -18 -6 -23z m1738
12 c0 -5 12 -16 28 -24 37 -21 21 -20 -23 1 -36 17 -46 33 -20 33 8 0 15 -4
15 -10z m-1645 -124 c-15 -25 -28 -46 -30 -46 -1 0 0 11 3 25 2 14 8 25 13 25
5 0 14 12 20 26 5 15 12 24 15 21 3 -3 -6 -26 -21 -51z m1569 8 c4 -14 12 -24
19 -21 7 3 12 -5 12 -19 0 -23 -1 -23 -13 -7 -24 32 -43 73 -33 73 5 0 12 -12
15 -26z m-1453 -70 c18 -19 19 -24 6 -18 -12 4 -28 -3 -50 -22 l-32 -29 33 36
c25 27 29 38 20 47 -7 7 -10 12 -7 12 3 0 16 -11 30 -26z m1399 -29 c25 -26
30 -35 17 -35 -9 0 -17 5 -17 12 0 6 -10 22 -22 35 -12 13 -19 23 -17 23 3 0
20 -16 39 -35z m-60 -25 c-12 -7 -11 -13 10 -37 l25 -28 -33 29 c-38 35 -40
46 -9 46 17 0 19 -2 7 -10z m-1269 -38 c-7 -13 -6 -23 2 -31 9 -10 8 -11 -6
-5 -12 4 -23 0 -33 -12 -19 -24 -7 2 18 39 22 31 34 36 19 9z m42 -61 c-15
-22 -30 -38 -32 -35 -2 2 2 10 8 18 7 8 9 21 5 27 -4 7 -3 9 3 6 6 -4 16 0 23
8 25 30 20 14 -7 -24z m1104 17 c-3 -8 -6 -5 -6 6 -1 11 2 17 5 13 3 -3 4 -12
1 -19z m83 -32 c0 -2 -9 -2 -20 1 -11 3 -20 9 -20 15 0 5 9 4 20 -2 11 -6 20
-12 20 -14z m-1093 -69 c-12 -27 -14 -19 -8 38 5 49 5 49 11 15 3 -19 2 -43
-3 -53z m1031 23 c0 -9 -3 -7 -8 5 -5 11 -8 29 -8 40 0 16 2 15 8 -5 4 -14 8
-32 8 -40z m-111 -56 c-1 -1 -11 10 -21 24 -11 14 -14 22 -8 18 8 -4 12 0 13
11 1 10 5 2 9 -17 5 -19 8 -36 7 -36z m-774 12 c-10 -13 -27 -30 -38 -37 -13
-8 -10 0 10 24 34 40 56 50 28 13z m611 -1 c-4 -8 -8 -15 -10 -15 -2 0 -4 7
-4 15 0 8 4 15 10 15 5 0 7 -7 4 -15z m-585 -42 c0 -29 -2 -33 -8 -18 -7 18
-4 55 5 55 2 0 4 -17 3 -37z m126 -3 c20 -45 32 -50 38 -17 4 21 4 20 5 -3 3
-54 -15 -55 -41 -4 l-25 49 -8 -43 c-3 -23 -9 -41 -11 -38 -7 7 8 96 17 96 4
0 15 -18 25 -40z m513 -15 c-3 -4 -16 9 -28 27 l-23 33 28 -27 c16 -15 26 -30
23 -33z m-220 -35 c0 -22 -1 -22 -8 5 -4 17 -8 41 -8 55 0 22 1 22 8 -5 4 -16
8 -41 8 -55z m49 40 c-3 -15 -1 -33 6 -41 7 -7 2 -5 -11 6 -15 13 -19 21 -11
26 7 4 9 16 6 28 -3 13 -1 19 5 15 5 -4 8 -19 5 -34z m-159 3 c5 -16 13 -37
17 -48 l8 -20 -16 20 c-9 11 -17 28 -17 38 0 29 -18 19 -30 -19 -7 -19 -14
-33 -16 -31 -7 7 27 87 36 87 4 0 13 -12 18 -27z m265 -13 c-7 -28 -13 -25
-13 6 0 14 4 23 9 20 5 -3 7 -15 4 -26z"/>
<path d="M1375 1397 c-87 -49 -125 -165 -64 -198 30 -16 74 5 92 44 19 42 30
126 20 154 l-8 22 -40 -22z"/>
<path d="M1785 1408 c-62 -34 -105 -96 -105 -152 0 -62 45 -84 93 -46 32 25
47 75 47 153 0 60 -3 63 -35 45z"/>
</g>
</svg>
